# This file uses centimeters as units for non-parametric coordinates.

mtllib Couteau.mtl
g default
v 0.661167 1.233350 -0.173488
v 0.575205 1.233350 -0.369292
v 0.432937 1.233350 -0.528947
v 0.248290 1.233350 -0.636824
v 0.039338 1.233350 -0.682365
v -0.173464 1.233350 -0.661111
v -0.369287 1.233350 -0.575144
v -0.760327 3.951237 -0.452547
v -0.636856 1.233350 -0.248236
v -0.682411 1.233350 -0.039297
v -0.661168 1.233350 0.173489
v -0.575204 1.233350 0.369292
v -0.432936 1.233350 0.528947
v -0.248289 1.233350 0.636824
v -0.039338 1.233350 0.682367
v 0.173464 1.233350 0.661111
v 0.369285 1.233350 0.575144
v 0.528960 1.233350 0.432877
v 0.636855 1.233350 0.248236
v 0.682411 1.233350 0.039298
v 0.472960 5.848035 -0.264884
v 0.386527 5.848035 -0.434516
v 0.251905 5.848035 -0.569138
v 0.082273 5.848035 -0.655569
v -0.105766 5.848035 -0.685355
v -0.293805 5.848035 -0.655569
v -0.463438 5.848035 -0.569138
v -0.476291 5.744830 -0.246184
v -0.684490 5.848035 -0.264883
v -0.714272 5.848035 -0.076845
v -0.684490 5.848035 0.111195
v -0.598059 5.848035 0.280827
v -0.463438 5.848035 0.415448
v -0.293805 5.848035 0.501881
v -0.105766 5.848035 0.531663
v 0.082273 5.848035 0.501881
v 0.251905 5.848035 0.415448
v 0.386527 5.848035 0.280827
v 0.472959 5.848035 0.111195
v 0.502742 5.848035 -0.076845
v 0.000000 1.233350 0.000000
v -0.105766 5.848037 -0.076845
v -1.833348 5.927897 -1.138420
v 0.012991 5.900035 0.287878
v 0.199194 5.865137 -0.214501
v -0.375522 12.289506 -0.499334
v 0.012991 10.301188 0.287878
v 0.278627 10.284337 -0.237441
vt 0.648603 0.107966
vt 0.626409 0.064408
vt 0.591842 0.029841
vt 0.548284 0.007647
vt 0.500000 -0.000000
vt 0.451716 0.007647
vt 0.408159 0.029841
vt 0.373591 0.064409
vt 0.351397 0.107966
vt 0.343750 0.156250
vt 0.351397 0.204534
vt 0.373591 0.248091
vt 0.408159 0.282659
vt 0.451716 0.304853
vt 0.500000 0.312500
vt 0.548284 0.304853
vt 0.591841 0.282659
vt 0.626409 0.248091
vt 0.648603 0.204534
vt 0.656250 0.156250
vt 0.375000 0.312500
vt 0.387500 0.312500
vt 0.400000 0.312500
vt 0.412500 0.312500
vt 0.425000 0.312500
vt 0.437500 0.312500
vt 0.450000 0.312500
vt 0.462500 0.312500
vt 0.475000 0.312500
vt 0.487500 0.312500
vt 0.500000 0.312500
vt 0.512500 0.312500
vt 0.525000 0.312500
vt 0.537500 0.312500
vt 0.550000 0.312500
vt 0.562500 0.312500
vt 0.575000 0.312500
vt 0.587500 0.312500
vt 0.600000 0.312500
vt 0.612500 0.312500
vt 0.625000 0.312500
vt 0.375000 0.688440
vt 0.387500 0.688440
vt 0.400000 0.688440
vt 0.412500 0.688440
vt 0.425000 0.688440
vt 0.437500 0.688440
vt 0.450000 0.688440
vt 0.462500 0.688440
vt 0.475000 0.688440
vt 0.487500 0.688440
vt 0.500000 0.688440
vt 0.512500 0.688440
vt 0.525000 0.688440
vt 0.537500 0.688440
vt 0.550000 0.688440
vt 0.562500 0.688440
vt 0.575000 0.688440
vt 0.587500 0.688440
vt 0.600000 0.688440
vt 0.612500 0.688440
vt 0.625000 0.688440
vt 0.648603 0.795466
vt 0.626409 0.751908
vt 0.591842 0.717341
vt 0.548284 0.695147
vt 0.500000 0.687500
vt 0.451716 0.695147
vt 0.408159 0.717341
vt 0.373591 0.751909
vt 0.351397 0.795466
vt 0.343750 0.843750
vt 0.351397 0.892034
vt 0.373591 0.935591
vt 0.408159 0.970159
vt 0.451716 0.992353
vt 0.500000 1.000000
vt 0.548284 0.992353
vt 0.591841 0.970159
vt 0.626409 0.935591
vt 0.648603 0.892034
vt 0.656250 0.843750
vt 0.500000 0.150000
vt 0.500000 0.837500
vt 0.375000 0.312500
vt 0.458333 0.312500
vt 0.458333 0.688440
vt 0.375000 0.688440
vt 0.541667 0.312500
vt 0.541667 0.688440
vt 0.625000 0.312500
vt 0.625000 0.688440
vt 0.421875 0.020934
vt 0.656250 0.156250
vt 0.421875 0.291566
vt 0.421875 0.979066
vt 0.421875 0.708434
vt 0.656250 0.843750
vn 0.960300 0.033657 -0.276930
vn 0.828156 0.025919 -0.559898
vn 0.824270 0.025735 -0.565612
vn 0.958608 0.033521 -0.282750
vn 0.614859 0.017225 -0.788449
vn 0.609137 0.017020 -0.792882
vn 0.341074 0.008424 -0.939999
vn 0.334472 0.008233 -0.942370
vn 0.033554 0.000383 -0.999437
vn 0.027297 0.000236 -0.999627
vn -0.277480 -0.006103 -0.960712
vn -0.282326 -0.006190 -0.959299
vn -0.440570 -0.004666 -0.897706
vn -0.507211 0.015519 -0.861682
vn -0.798569 0.046071 -0.600137
vn -0.803812 0.046069 -0.593097
vn -0.983375 -0.008553 -0.181384
vn -0.991328 0.001320 -0.131407
vn -0.999534 -0.007137 -0.029691
vn -0.999485 -0.007162 -0.031270
vn -0.959624 -0.001042 0.281286
vn -0.960424 -0.001106 0.278538
vn -0.825455 0.006747 0.564428
vn -0.827542 0.006648 0.561364
vn -0.610419 0.015459 0.791928
vn -0.613608 0.015345 0.789462
vn -0.335846 0.024238 0.941605
vn -0.339428 0.024135 0.940322
vn -0.028791 0.032225 0.999066
vn -0.031838 0.032154 0.998976
vn 0.280707 0.038647 0.959015
vn 0.278942 0.038615 0.959531
vn 0.562580 0.042884 0.825630
vn 0.562337 0.042881 0.825796
vn 0.789586 0.044532 0.612022
vn 0.790465 0.044533 0.610886
vn 0.939813 0.043431 0.338918
vn 0.940889 0.043406 0.335922
vn 0.998676 0.039688 0.032721
vn 0.998824 0.039611 0.027946
vn 0.000000 -1.000000 0.000000
vn 0.000000 -1.000000 0.000000
vn -0.597385 -0.660904 -0.454243
vn 0.000000 -1.000000 0.000000
vn 0.000000 -1.000000 -0.000000
vn 0.000000 -1.000000 0.000000
vn 0.000000 -1.000000 0.000000
vn -0.822901 -0.208958 0.528366
vn -0.738086 -0.306557 -0.601042
vn 0.360561 -0.119662 -0.925028
vn 0.000000 -1.000000 0.000000
vn 0.000000 -1.000000 0.000000
vn 0.000000 -1.000000 0.000000
vn 0.000000 -1.000000 0.000000
vn 0.000000 -1.000000 0.000000
vn 0.000000 -1.000000 0.000000
vn 0.000000 -1.000000 0.000000
vn 0.000000 -1.000000 -0.000000
vn 0.000000 -1.000000 -0.000000
vn 0.000000 -1.000000 0.000000
vn 0.000000 -1.000000 0.000000
vn 0.000003 1.000000 -0.000002
vn 0.000003 1.000000 -0.000004
vn -0.032382 0.999455 0.006339
vn 0.000002 1.000000 -0.000002
vn 0.000001 1.000000 -0.000001
vn 0.000000 1.000000 -0.000003
vn -0.000001 1.000000 -0.000003
vn -0.145037 0.983799 0.105372
vn -0.157863 0.958206 -0.238579
vn 0.054982 0.984042 -0.169226
vn -0.000003 1.000000 0.000000
vn -0.000003 1.000000 0.000002
vn -0.000003 1.000000 0.000004
vn -0.000002 1.000000 0.000002
vn -0.000001 1.000000 0.000002
vn 0.000000 1.000000 0.000003
vn 0.000001 1.000000 0.000002
vn 0.000002 1.000000 0.000001
vn 0.000003 1.000000 0.000004
vn 0.000003 1.000000 0.000002
vn 0.000003 1.000000 -0.000002
vn -0.680335 0.048729 0.731279
vn -0.680335 0.048729 0.731279
vn -0.680335 0.048729 0.731279
vn -0.680335 0.048729 0.731279
vn 0.915272 -0.007195 0.402772
vn 0.915272 -0.007195 0.402772
vn 0.915272 -0.007195 0.402772
vn 0.915272 -0.007195 0.402772
vn 0.400702 -0.004775 -0.916196
vn 0.400702 -0.004775 -0.916196
vn 0.400702 -0.004775 -0.916196
vn 0.400702 -0.004775 -0.916196
vn -0.053307 -0.997350 0.049522
vn -0.053307 -0.997349 0.049522
vn -0.053307 -0.997350 0.049522
vn 0.846431 0.330649 0.417404
vn 0.846431 0.330649 0.417404
vn 0.846431 0.330649 0.417404
s 1
g pCylinder2
usemtl lambert2SG
f 1/21/1 2/22/2 22/43/3 21/42/4
f 2/22/2 3/23/5 23/44/6 22/43/3
f 3/23/5 4/24/7 24/45/8 23/44/6
f 4/24/7 5/25/9 25/46/10 24/45/8
f 5/25/9 6/26/11 26/47/12 25/46/10
f 6/26/11 7/27/13 27/48/14 26/47/12
f 7/27/13 8/28/15 28/49/16 27/48/14
f 8/28/15 9/29/17 29/50/18 28/49/16
f 9/29/17 10/30/19 30/51/20 29/50/18
f 10/30/19 11/31/21 31/52/22 30/51/20
f 11/31/21 12/32/23 32/53/24 31/52/22
f 12/32/23 13/33/25 33/54/26 32/53/24
f 13/33/25 14/34/27 34/55/28 33/54/26
f 14/34/27 15/35/29 35/56/30 34/55/28
f 15/35/29 16/36/31 36/57/32 35/56/30
f 16/36/31 17/37/33 37/58/34 36/57/32
f 17/37/33 18/38/35 38/59/36 37/58/34
f 18/38/35 19/39/37 39/60/38 38/59/36
f 19/39/37 20/40/39 40/61/40 39/60/38
f 20/40/39 1/41/1 21/62/4 40/61/40
s 2
f 2/2/41 1/1/42 41/83/43
f 3/3/44 2/2/41 41/83/43
f 4/4/45 3/3/44 41/83/43
f 5/5/46 4/4/45 41/83/43
f 6/6/47 5/5/46 41/83/43
f 7/7/48 6/6/47 41/83/43
f 8/8/49 7/7/48 41/83/43
f 9/9/50 8/8/49 41/83/43
f 10/10/51 9/9/50 41/83/43
f 11/11/52 10/10/51 41/83/43
f 12/12/53 11/11/52 41/83/43
f 13/13/54 12/12/53 41/83/43
f 14/14/55 13/13/54 41/83/43
f 15/15/56 14/14/55 41/83/43
f 16/16/57 15/15/56 41/83/43
f 17/17/58 16/16/57 41/83/43
f 18/18/59 17/17/58 41/83/43
f 19/19/60 18/18/59 41/83/43
f 20/20/61 19/19/60 41/83/43
f 1/1/42 20/20/61 41/83/43
s 3
f 21/81/62 22/80/63 42/84/64
f 22/80/63 23/79/65 42/84/64
f 23/79/65 24/78/66 42/84/64
f 24/78/66 25/77/67 42/84/64
f 25/77/67 26/76/68 42/84/64
f 26/76/68 27/75/69 42/84/64
f 27/75/69 28/74/70 42/84/64
f 28/74/70 29/73/71 42/84/64
f 29/73/71 30/72/72 42/84/64
f 30/72/72 31/71/73 42/84/64
f 31/71/73 32/70/74 42/84/64
f 32/70/74 33/69/75 42/84/64
f 33/69/75 34/68/76 42/84/64
f 34/68/76 35/67/77 42/84/64
f 35/67/77 36/66/78 42/84/64
f 36/66/78 37/65/79 42/84/64
f 37/65/79 38/64/80 42/84/64
f 38/64/80 39/63/81 42/84/64
f 39/63/81 40/82/82 42/84/64
f 40/82/82 21/81/62 42/84/64
s off
usemtl phong1SG
f 43/85/83 44/86/84 47/87/85 46/88/86
f 44/86/87 45/89/88 48/90/89 47/87/90
f 45/89/91 43/91/92 46/92/93 48/90/94
f 43/93/95 45/94/96 44/95/97
f 46/96/98 47/97/99 48/98/100
