# This file uses centimeters as units for non-parametric coordinates.

mtllib Rock4.mtl
g default
v -5.530923 1.721008 0.888830
v -5.525221 0.602421 1.275268
v -3.155171 0.482315 0.730347
v -4.030019 0.485191 -0.846753
v -5.893969 1.295208 -0.528910
v -4.633193 0.116042 -0.480774
v -3.889452 1.523271 -0.788914
v -4.994361 1.942884 -1.303798
v -4.642118 2.884068 0.183001
v -5.059070 0.145964 1.145479
v -3.283842 1.946870 0.556139
v -5.624664 0.218306 0.108974
v -5.124625 0.436419 -0.749258
v -3.761110 0.877850 0.171648
v -3.753640 2.656768 -0.054147
v -2.894217 1.021905 0.407871
v -5.909037 0.665006 0.226114
v -4.668405 0.703645 1.265232
v -3.833385 1.208741 0.651510
v -5.941338 1.914691 -0.020788
v -4.687816 0.215713 0.758484
v -4.827581 2.043351 -0.722190
v -3.881183 0.161700 0.741194
v -5.165195 1.327556 -1.459324
v -5.722840 0.877540 1.405671
v -3.989225 0.991665 -1.517891
v -4.653205 0.870146 0.998606
v -5.712838 0.647814 -0.572245
v -4.832814 2.173534 1.375048
v -3.425637 0.379326 -0.187682
v -4.910899 0.594472 1.485411
v -3.495709 1.372301 -0.351880
vt 0.309813 0.175683
vt 0.274345 0.204931
vt 0.315284 0.170300
vt 0.239665 0.168067
vt 0.308129 0.122553
vt 0.322621 0.170200
vt 0.276010 0.130295
vt 0.248463 0.139538
vt 0.226652 0.148683
vt 0.213402 0.198746
vt 0.212211 0.169657
vt 0.208697 0.181327
vt 0.309281 0.205149
vt 0.250634 0.200461
vt 0.297917 0.192795
vt 0.238874 0.206674
vt 0.234921 0.194881
vt 0.220016 0.130128
vt 0.206537 0.168162
vt 0.275353 0.182233
vt 0.237687 0.200615
vt 0.348628 0.135708
vt 0.362419 0.162840
vt 0.284951 0.142218
vt 0.255127 0.146392
vt 0.267177 0.141113
vt 0.255608 0.112324
vt 0.225127 0.182776
vt 0.225514 0.121520
vt 0.208270 0.144715
vt 0.233788 0.175819
vt 0.249025 0.167258
vn -0.571485 0.820313 0.022177
vn -0.571485 0.820313 0.022177
vn -0.571485 0.820313 0.022177
vn 0.465733 -0.014012 0.884815
vn 0.465733 -0.014012 0.884815
vn 0.465733 -0.014012 0.884815
vn 0.864617 -0.501207 -0.035055
vn 0.864617 -0.501207 -0.035055
vn 0.864617 -0.501207 -0.035055
vn 0.072749 -0.991388 -0.108890
vn 0.072749 -0.991388 -0.108890
vn 0.072749 -0.991388 -0.108890
vn -0.774716 0.449050 0.445163
vn -0.774716 0.449049 0.445163
vn -0.774716 0.449049 0.445163
vn -0.937367 0.044042 0.345548
vn -0.937367 0.044042 0.345548
vn -0.937367 0.044042 0.345548
vn 0.287273 -0.868940 -0.403010
vn 0.287273 -0.868940 -0.403010
vn 0.287273 -0.868940 -0.403011
vn -0.772117 -0.175135 -0.610871
vn -0.772117 -0.175135 -0.610871
vn -0.772117 -0.175135 -0.610871
vn 0.397783 0.735150 0.548929
vn 0.397783 0.735150 0.548929
vn 0.397783 0.735150 0.548929
vn -0.585403 0.697830 0.412718
vn -0.585403 0.697830 0.412718
vn -0.585403 0.697830 0.412718
vn 0.508244 0.661239 -0.551771
vn 0.508244 0.661239 -0.551771
vn 0.508243 0.661239 -0.551771
vn -0.232901 -0.697179 -0.678011
vn -0.232901 -0.697179 -0.678011
vn -0.232901 -0.697179 -0.678011
vn 0.339428 0.783111 0.521082
vn 0.339428 0.783111 0.521082
vn 0.339428 0.783111 0.521082
vn 0.450946 0.848826 -0.275938
vn 0.450946 0.848826 -0.275938
vn 0.450946 0.848826 -0.275938
vn -0.626599 -0.722784 0.291473
vn -0.626599 -0.722784 0.291473
vn -0.626599 -0.722784 0.291473
vn 0.121993 -0.060370 0.990693
vn 0.121993 -0.060370 0.990693
vn 0.121993 -0.060370 0.990693
vn 0.689200 -0.438595 0.576748
vn 0.689200 -0.438595 0.576748
vn 0.689200 -0.438595 0.576748
vn 0.284596 -0.764780 -0.578029
vn 0.284596 -0.764780 -0.578029
vn 0.284596 -0.764780 -0.578029
vn -0.056530 -0.995383 0.077566
vn -0.056530 -0.995383 0.077566
vn -0.056530 -0.995383 0.077566
vn -0.035748 -0.673537 -0.738289
vn -0.035748 -0.673537 -0.738289
vn -0.035748 -0.673537 -0.738289
vn -0.330976 -0.850413 -0.408966
vn -0.330976 -0.850413 -0.408966
vn -0.330976 -0.850413 -0.408966
vn -0.941897 -0.248391 -0.226125
vn -0.941897 -0.248391 -0.226125
vn -0.941897 -0.248391 -0.226125
vn 0.301970 -0.592409 -0.746904
vn 0.301970 -0.592409 -0.746904
vn 0.301970 -0.592409 -0.746904
vn 0.237119 -0.965249 -0.109859
vn 0.237119 -0.965249 -0.109859
vn 0.237119 -0.965249 -0.109859
vn 0.224283 0.511023 -0.829791
vn 0.224283 0.511023 -0.829791
vn 0.224283 0.511023 -0.829791
vn 0.888198 0.265308 -0.375122
vn 0.888198 0.265308 -0.375122
vn 0.888198 0.265308 -0.375122
vn 0.240670 -0.053966 0.969106
vn 0.240670 -0.053966 0.969106
vn 0.240670 -0.053966 0.969106
vn 0.798092 0.407349 -0.443978
vn 0.798092 0.407349 -0.443977
vn 0.798092 0.407349 -0.443977
vn -0.849548 -0.488841 -0.198252
vn -0.849548 -0.488841 -0.198252
vn -0.849548 -0.488841 -0.198252
vn -0.784604 -0.565904 0.253277
vn -0.784604 -0.565904 0.253277
vn -0.784604 -0.565904 0.253277
vn 0.908027 -0.185785 0.375462
vn 0.908027 -0.185785 0.375462
vn 0.908027 -0.185785 0.375462
vn 0.221102 0.793801 0.566564
vn 0.221102 0.793801 0.566564
vn 0.221102 0.793801 0.566564
vn 0.302143 0.377106 0.875501
vn 0.302143 0.377106 0.875500
vn 0.302143 0.377106 0.875500
vn 0.403715 -0.914739 -0.016322
vn 0.403715 -0.914739 -0.016322
vn 0.403715 -0.914739 -0.016322
vn -0.998132 -0.035607 -0.049641
vn -0.998132 -0.035607 -0.049641
vn -0.998132 -0.035607 -0.049641
vn -0.495410 0.527934 -0.689822
vn -0.495410 0.527934 -0.689822
vn -0.495410 0.527934 -0.689822
vn -0.023263 0.086373 0.995991
vn -0.023263 0.086373 0.995991
vn -0.023263 0.086373 0.995991
vn 0.574320 0.043801 0.817458
vn 0.574320 0.043801 0.817458
vn 0.574320 0.043801 0.817458
vn 0.005503 0.732146 -0.681125
vn 0.005503 0.732146 -0.681125
vn 0.005503 0.732146 -0.681125
vn -0.435684 0.702289 -0.563001
vn -0.435684 0.702289 -0.563001
vn -0.435684 0.702289 -0.563001
vn -0.033294 -0.719318 0.693883
vn -0.033294 -0.719318 0.693883
vn -0.033294 -0.719318 0.693883
vn -0.064967 -0.994900 0.077154
vn -0.064967 -0.994900 0.077154
vn -0.064967 -0.994900 0.077154
vn -0.743214 0.350398 -0.569961
vn -0.743214 0.350398 -0.569961
vn -0.743213 0.350398 -0.569961
vn 0.020136 0.239738 -0.970629
vn 0.020136 0.239738 -0.970629
vn 0.020136 0.239738 -0.970629
vn -0.838792 -0.493374 -0.230240
vn -0.838792 -0.493374 -0.230240
vn -0.838792 -0.493374 -0.230240
vn -0.273517 -0.565324 0.778201
vn -0.273517 -0.565324 0.778201
vn -0.273517 -0.565324 0.778201
vn 0.884838 -0.396166 -0.245184
vn 0.884838 -0.396166 -0.245184
vn 0.884838 -0.396166 -0.245184
vn -0.018170 -0.797552 -0.602977
vn -0.018170 -0.797552 -0.602977
vn -0.018170 -0.797552 -0.602977
vn -0.998013 0.059926 -0.019473
vn -0.998013 0.059926 -0.019473
vn -0.998013 0.059926 -0.019473
vn -0.206155 -0.824656 -0.526728
vn -0.206155 -0.824656 -0.526728
vn -0.206155 -0.824656 -0.526728
vn -0.387816 -0.373493 -0.842675
vn -0.387816 -0.373493 -0.842675
vn -0.387816 -0.373493 -0.842675
vn -0.418460 -0.791735 -0.445025
vn -0.418460 -0.791735 -0.445025
vn -0.418460 -0.791735 -0.445025
vn -0.658404 0.688160 0.304859
vn -0.658404 0.688160 0.304859
vn -0.658404 0.688160 0.304859
vn -0.689267 0.486051 0.537277
vn -0.689267 0.486051 0.537277
vn -0.689267 0.486051 0.537277
vn 0.581747 0.695477 -0.421762
vn 0.581747 0.695476 -0.421762
vn 0.581747 0.695477 -0.421762
vn 0.691741 0.666265 -0.278543
vn 0.691741 0.666265 -0.278543
vn 0.691741 0.666265 -0.278543
vn 0.633434 -0.589326 0.501455
vn 0.633434 -0.589326 0.501455
vn 0.633434 -0.589326 0.501455
vn -0.282793 -0.518289 0.807097
vn -0.282793 -0.518289 0.807097
vn -0.282793 -0.518289 0.807097
vn 0.718894 0.511112 -0.471122
vn 0.718894 0.511112 -0.471122
vn 0.718894 0.511112 -0.471122
vn 0.758833 0.287804 -0.584245
vn 0.758832 0.287804 -0.584245
vn 0.758833 0.287804 -0.584245
s off
g Group59010
usemtl lambert2SG
f 8/1/1 5/2/2 22/3/3
f 18/4/4 11/5/5 29/6/6
f 32/7/7 14/8/8 4/9/9
f 12/10/10 21/11/11 10/12/12
f 20/13/13 25/14/14 1/15/15
f 17/16/16 2/17/17 20/13/18
f 4/9/19 30/18/20 6/19/21
f 5/2/22 24/20/23 28/21/24
f 29/6/25 11/5/26 15/22/27
f 20/13/28 1/15/29 9/23/30
f 7/24/31 26/25/32 8/1/33
f 24/20/34 26/25/35 28/21/36
f 29/6/37 15/22/38 9/23/39
f 22/3/40 7/24/41 8/1/42
f 2/17/43 12/10/44 10/12/45
f 29/6/46 25/14/47 18/4/48
f 18/4/49 19/26/50 11/5/51
f 16/27/52 14/8/53 32/7/54
f 12/10/55 6/19/56 21/11/57
f 4/9/58 6/19/59 13/28/60
f 13/28/61 6/19/62 12/10/63
f 5/2/64 28/21/65 17/16/66
f 16/27/67 3/29/68 14/8/69
f 30/18/70 23/30/71 6/19/72
f 15/22/73 7/24/74 22/3/75
f 15/22/76 11/5/77 32/7/78
f 19/26/79 16/27/80 11/5/81
f 11/5/82 16/27/83 32/7/84
f 28/21/85 12/10/86 17/16/87
f 17/16/88 12/10/89 2/17/90
f 31/31/91 21/11/92 27/32/93
f 25/14/94 31/31/95 27/32/96
f 19/26/97 3/29/98 16/27/99
f 3/29/100 23/30/101 30/18/102
f 5/2/103 17/16/104 20/13/105
f 22/3/106 5/2/107 20/13/108
f 19/26/109 23/30/110 3/29/111
f 18/4/112 23/30/113 19/26/114
f 15/22/115 22/3/116 9/23/117
f 22/3/118 20/13/119 9/23/120
f 18/4/121 21/11/122 23/30/123
f 21/11/124 6/19/125 23/30/126
f 24/20/127 5/2/128 8/1/129
f 26/25/130 24/20/131 8/1/132
f 20/13/133 2/17/134 25/14/135
f 25/14/136 2/17/137 31/31/138
f 32/7/139 4/9/140 26/25/141
f 4/9/142 13/28/143 26/25/144
f 27/32/145 21/11/146 18/4/147
f 25/14/148 27/32/149 18/4/150
f 26/25/151 13/28/152 28/21/153
f 13/28/154 12/10/155 28/21/156
f 9/23/157 1/15/158 29/6/159
f 1/15/160 25/14/161 29/6/162
f 14/8/163 30/18/164 4/9/165
f 14/8/166 3/29/167 30/18/168
f 31/31/169 10/12/170 21/11/171
f 2/17/172 10/12/173 31/31/174
f 7/24/175 32/7/176 26/25/177
f 15/22/178 32/7/179 7/24/180
