# This file uses centimeters as units for non-parametric coordinates.

mtllib Viande2.mtl
g default
v -0.591904 1.641960 -10.254932
v -0.152774 5.442603 -8.322681
v -1.264670 0.755968 -8.671421
v 0.609463 0.262571 -9.185118
v -0.161810 0.682755 -9.748910
v -0.387888 2.480038 -8.722029
v 0.412924 0.039694 -8.940545
v 0.262128 1.117673 -7.952870
v -0.620675 4.203204 -8.059558
v 1.566689 1.844463 -8.886081
v 0.374276 1.752383 -10.067741
v 0.348356 2.673776 -9.714000
v 0.131161 3.854491 -7.978422
v 0.658103 5.802570 -8.123847
v -0.474262 0.882043 -9.972066
v -1.259104 1.514334 -8.997744
v 0.421829 3.300626 -8.794129
v 0.299514 1.544648 -7.532577
v 0.669803 3.881496 -8.628423
v -0.283388 0.315721 -9.251969
v -0.646138 2.831413 -8.071490
v 1.466149 1.304894 -8.104843
v 1.449907 1.851906 -8.833852
v 0.067973 -0.012847 -8.500512
v 0.685055 5.794813 -7.743144
v -0.594882 1.568527 -8.167059
v 0.984052 1.064283 -7.293041
v -0.239993 2.608906 -9.733472
v 1.285455 2.790232 -8.562212
v 1.624105 2.650718 -8.399301
v -0.941111 3.141427 -8.605826
v 1.751703 1.418828 -7.875300
v -1.336455 0.943123 -9.196939
v -0.569782 1.004272 -9.754283
v -0.943952 0.380550 -9.015078
v 0.343382 3.115243 -9.165199
v 0.374393 1.013878 -7.951349
v -0.244888 3.814798 -9.047404
v 1.252769 1.696326 -7.421457
v 0.682473 0.728884 -9.423442
v -0.827594 2.457859 -9.895832
v -0.337964 1.523798 -10.042459
v 1.042584 0.698432 -9.331372
v 0.142112 2.715560 -7.746336
v 0.436284 4.062004 -8.822714
v -0.670874 1.682321 -9.816092
v -0.731544 0.314692 -8.471795
v -0.149973 4.802076 -7.712917
v 0.536781 1.756462 -9.566636
v 0.456587 0.370415 -9.485221
v 0.738266 5.223104 -8.094226
v -0.712675 1.659597 -8.500427
v -0.106085 2.127199 -7.826482
v 0.516659 4.902717 -7.791414
v -0.245047 2.317786 -10.112357
v -0.169844 3.140719 -9.091493
v 0.795391 2.681598 -7.500335
v 0.161517 5.857794 -7.939382
v 1.746786 1.546952 -8.291775
v -0.566526 2.460771 -9.662643
v 0.164614 4.336588 -8.904073
v 1.862956 1.407353 -8.287498
v -0.075900 1.272165 -7.624018
v -1.116910 1.892065 -9.772843
v 0.910716 3.249452 -8.849093
v 0.469466 0.347325 -8.074632
v 0.599286 0.286005 -8.837808
v 0.040378 1.395162 -10.231934
v 1.033794 0.755867 -7.504932
v -0.432423 5.233326 -7.917407
v -0.694583 1.679183 -7.867582
v -0.567117 0.307427 -9.374268
v 0.398016 3.744740 -8.285823
v -0.307512 1.244943 -8.050629
v -1.085143 1.009002 -9.714970
v 0.580888 3.232488 -9.378350
v 0.674670 2.053249 -7.683011
v -0.539340 3.588886 -7.888333
v 1.328421 0.830286 -8.822086
v -0.674029 0.994833 -9.333191
vt 0.966547 0.396858
vt 0.949286 0.358826
vt 0.940353 0.382362
vt 0.894143 0.346067
vt 0.922124 0.334641
vt 0.930069 0.327394
vt 0.950697 0.442801
vt 0.951136 0.395386
vt 0.969331 0.402669
vt 0.963535 0.365170
vt 0.938755 0.448784
vt 0.933994 0.397709
vt 0.912458 0.399511
vt 0.960939 0.422656
vt 0.973194 0.379098
vt 0.973970 0.393955
vt 0.910294 0.390859
vt 0.929859 0.351124
vt 0.948077 0.390932
vt 0.902349 0.425277
vt 0.914862 0.418575
vt 0.920374 0.453772
vt 0.882541 0.377842
vt 0.845292 0.386898
vt 0.883796 0.393983
vt 0.962323 0.422849
vt 0.950615 0.460024
vt 0.917287 0.373115
vt 0.930967 0.356212
vt 0.872799 0.396928
vt 0.887887 0.405003
vt 0.860175 0.384998
vt 0.886081 0.364589
vt 0.886285 0.417009
vt 0.861696 0.413707
vt 0.841628 0.422568
vt 0.837473 0.401593
vt 0.848531 0.374328
vt 0.841964 0.423691
vt 0.962086 0.353060
vt 0.960966 0.346080
vt 0.947639 0.324765
vt 0.942880 0.322298
vt 0.958208 0.337241
vt 0.942805 0.333209
vt 0.934839 0.404643
vt 0.935179 0.366655
vt 0.910559 0.374249
vt 0.969934 0.403029
vt 0.959533 0.407608
vt 0.937907 0.443834
vt 0.945512 0.350674
vt 0.932654 0.355854
vt 0.929573 0.352976
vt 0.912695 0.367543
vt 0.929509 0.351956
vt 0.898333 0.404616
vt 0.880744 0.407633
vt 0.855541 0.424155
vt 0.900835 0.411176
vt 0.955719 0.371505
vt 0.945896 0.355143
vt 0.903045 0.357652
vt 0.915176 0.439789
vt 0.928748 0.411452
vt 0.902182 0.400691
vt 0.946703 0.455517
vt 0.967157 0.397333
vt 0.941827 0.367072
vt 0.922515 0.378433
vt 0.953493 0.421510
vt 0.949705 0.455322
vt 0.940377 0.434948
vt 0.871352 0.363062
vt 0.960917 0.435439
vt 0.898621 0.378913
vt 0.938383 0.393870
vt 0.942535 0.377022
vt 0.910666 0.348746
vt 0.912108 0.359875
vn 0.130227 -0.548809 -0.825742
vn 0.130227 -0.548809 -0.825742
vn 0.130227 -0.548809 -0.825742
vn -0.974869 0.209062 -0.076959
vn -0.974869 0.209062 -0.076959
vn -0.974869 0.209062 -0.076959
vn 0.279668 -0.706002 0.650651
vn 0.279668 -0.706002 0.650651
vn 0.279668 -0.706002 0.650651
vn -0.289923 -0.774424 0.562328
vn -0.289923 -0.774424 0.562328
vn -0.289923 -0.774424 0.562328
vn 0.663686 0.284296 -0.691879
vn 0.663686 0.284296 -0.691879
vn 0.663686 0.284296 -0.691879
vn 0.439705 -0.865093 0.241399
vn 0.439705 -0.865093 0.241399
vn 0.439705 -0.865093 0.241399
vn -0.545483 -0.147609 0.825021
vn -0.545483 -0.147609 0.825021
vn -0.545483 -0.147609 0.825021
vn 0.442345 0.812423 0.379869
vn 0.442345 0.812423 0.379869
vn 0.442344 0.812423 0.379869
vn -0.708500 0.320104 -0.628936
vn -0.708500 0.320104 -0.628936
vn -0.708500 0.320104 -0.628936
vn -0.337906 0.184807 0.922857
vn -0.337906 0.184807 0.922857
vn -0.337906 0.184807 0.922857
vn 0.704950 -0.047424 -0.707670
vn 0.704950 -0.047424 -0.707670
vn 0.704950 -0.047424 -0.707670
vn 0.663441 -0.743500 0.083981
vn 0.663441 -0.743500 0.083981
vn 0.663441 -0.743500 0.083981
vn 0.373941 0.341560 -0.862267
vn 0.373941 0.341560 -0.862267
vn 0.373941 0.341560 -0.862267
vn -0.107371 -0.361389 -0.926212
vn -0.107371 -0.361389 -0.926213
vn -0.107371 -0.361389 -0.926212
vn -0.208197 0.407622 -0.889100
vn -0.208197 0.407622 -0.889100
vn -0.208197 0.407622 -0.889100
vn 0.809369 0.513332 0.285328
vn 0.809369 0.513332 0.285328
vn 0.809369 0.513332 0.285328
vn 0.209863 -0.205565 0.955877
vn 0.209863 -0.205565 0.955877
vn 0.209863 -0.205565 0.955877
vn 0.801842 -0.302237 0.515463
vn 0.801842 -0.302237 0.515463
vn 0.801842 -0.302237 0.515463
vn 0.009296 0.467363 -0.884017
vn 0.009296 0.467363 -0.884017
vn 0.009296 0.467363 -0.884017
vn -0.299346 0.316388 0.900162
vn -0.299346 0.316388 0.900162
vn -0.299346 0.316388 0.900162
vn -0.156827 -0.958667 -0.237408
vn -0.156827 -0.958667 -0.237408
vn -0.156827 -0.958667 -0.237408
vn -0.478809 0.025400 0.877552
vn -0.478809 0.025400 0.877552
vn -0.478809 0.025400 0.877552
vn -0.800266 -0.591047 -0.101178
vn -0.800266 -0.591047 -0.101178
vn -0.800266 -0.591047 -0.101178
vn -0.424697 -0.372839 -0.824999
vn -0.424697 -0.372839 -0.824999
vn -0.424697 -0.372839 -0.824999
vn 0.422642 0.212703 -0.880983
vn 0.422642 0.212703 -0.880983
vn 0.422642 0.212703 -0.880983
vn 0.835678 -0.347999 -0.424899
vn 0.835678 -0.347999 -0.424899
vn 0.835678 -0.347999 -0.424899
vn -0.998062 0.038765 0.048669
vn -0.998062 0.038765 0.048669
vn -0.998062 0.038765 0.048669
vn -0.637073 0.663155 0.392891
vn -0.637073 0.663155 0.392891
vn -0.637073 0.663155 0.392891
vn 0.719992 0.224700 -0.656599
vn 0.719992 0.224700 -0.656599
vn 0.719992 0.224701 -0.656599
vn 0.722443 0.510277 -0.466576
vn 0.722443 0.510277 -0.466576
vn 0.722443 0.510277 -0.466576
vn -0.003338 -0.803989 -0.594634
vn -0.003338 -0.803989 -0.594634
vn -0.003338 -0.803989 -0.594634
vn -0.606318 -0.161379 -0.778676
vn -0.606318 -0.161379 -0.778676
vn -0.606318 -0.161379 -0.778676
vn -0.862625 0.047278 0.503631
vn -0.862625 0.047278 0.503631
vn -0.862625 0.047278 0.503631
vn -0.534822 0.049686 0.843502
vn -0.534822 0.049686 0.843502
vn -0.534822 0.049686 0.843502
vn 0.651255 0.294572 0.699353
vn 0.651255 0.294572 0.699353
vn 0.651255 0.294572 0.699353
vn 0.586519 0.318389 -0.744731
vn 0.586519 0.318389 -0.744731
vn 0.586519 0.318389 -0.744731
vn 0.767740 -0.278434 -0.577105
vn 0.767740 -0.278434 -0.577105
vn 0.767740 -0.278434 -0.577105
vn 0.901106 0.258670 -0.347990
vn 0.901106 0.258670 -0.347990
vn 0.901106 0.258670 -0.347990
vn -0.377760 -0.925221 0.035535
vn -0.377760 -0.925221 0.035535
vn -0.377760 -0.925221 0.035535
vn -0.300185 -0.227226 0.926422
vn -0.300185 -0.227226 0.926422
vn -0.300185 -0.227226 0.926422
vn 0.114957 0.993297 0.012102
vn 0.114957 0.993297 0.012102
vn 0.114957 0.993297 0.012102
vn 0.881992 -0.212496 0.420637
vn 0.881992 -0.212496 0.420637
vn 0.881992 -0.212496 0.420637
vn -0.753208 -0.527535 0.392917
vn -0.753208 -0.527535 0.392917
vn -0.753208 -0.527535 0.392917
vn -0.076221 0.654552 0.752165
vn -0.076221 0.654552 0.752165
vn -0.076221 0.654552 0.752165
vn -0.673382 -0.144297 0.725076
vn -0.673382 -0.144297 0.725076
vn -0.673382 -0.144297 0.725076
vn -0.657729 -0.287100 0.696395
vn -0.657729 -0.287100 0.696395
vn -0.657729 -0.287100 0.696395
vn 0.511871 0.309601 -0.801333
vn 0.511872 0.309601 -0.801333
vn 0.511872 0.309601 -0.801333
vn -0.964445 0.256866 0.062170
vn -0.964445 0.256866 0.062170
vn -0.964445 0.256866 0.062170
vn 0.539662 0.701958 -0.464780
vn 0.539662 0.701958 -0.464780
vn 0.539662 0.701958 -0.464780
vn 0.207768 0.673777 0.709125
vn 0.207768 0.673776 0.709125
vn 0.207768 0.673776 0.709125
vn 0.729039 0.330478 0.599405
vn 0.729039 0.330478 0.599405
vn 0.729039 0.330478 0.599405
vn 0.736795 0.310231 -0.600741
vn 0.736795 0.310231 -0.600741
vn 0.736795 0.310231 -0.600741
vn -0.872451 0.011945 0.488555
vn -0.872451 0.011945 0.488555
vn -0.872451 0.011945 0.488555
vn -0.937752 0.333278 -0.097714
vn -0.937752 0.333278 -0.097714
vn -0.937752 0.333278 -0.097714
vn 0.799094 -0.222969 -0.558331
vn 0.799094 -0.222969 -0.558331
vn 0.799094 -0.222969 -0.558331
vn 0.924878 0.146101 -0.351077
vn 0.924878 0.146101 -0.351077
vn 0.924878 0.146101 -0.351077
vn -0.983837 0.076822 0.161749
vn -0.983837 0.076822 0.161749
vn -0.983837 0.076822 0.161749
vn -0.980994 0.167187 -0.098489
vn -0.980994 0.167188 -0.098489
vn -0.980994 0.167188 -0.098489
vn -0.494277 -0.637073 -0.591462
vn -0.494277 -0.637073 -0.591462
vn -0.494277 -0.637073 -0.591462
vn -0.846165 -0.453198 0.280387
vn -0.846165 -0.453198 0.280387
vn -0.846165 -0.453198 0.280387
vn -0.031156 -0.718175 -0.695165
vn -0.031156 -0.718175 -0.695165
vn -0.031156 -0.718175 -0.695165
vn -0.409561 -0.625092 -0.664469
vn -0.409561 -0.625092 -0.664469
vn -0.409561 -0.625092 -0.664469
vn -0.052684 0.771838 -0.633632
vn -0.052684 0.771838 -0.633633
vn -0.052684 0.771838 -0.633632
vn -0.019226 0.896027 -0.443583
vn -0.019226 0.896027 -0.443583
vn -0.019226 0.896027 -0.443583
vn 0.262179 -0.574676 0.775248
vn 0.262179 -0.574676 0.775248
vn 0.262179 -0.574676 0.775248
vn -0.367695 0.201966 0.907750
vn -0.367695 0.201966 0.907750
vn -0.367695 0.201966 0.907750
vn -0.412985 0.527959 -0.742094
vn -0.412985 0.527959 -0.742094
vn -0.412985 0.527959 -0.742094
vn -0.692985 -0.071943 -0.717354
vn -0.692985 -0.071943 -0.717354
vn -0.692985 -0.071943 -0.717354
vn 0.633197 -0.113655 0.765601
vn 0.633197 -0.113655 0.765601
vn 0.633197 -0.113655 0.765601
vn -0.347691 0.079187 0.934259
vn -0.347691 0.079187 0.934259
vn -0.347690 0.079187 0.934259
vn 0.339780 -0.469652 -0.814848
vn 0.339780 -0.469652 -0.814848
vn 0.339780 -0.469652 -0.814848
vn 0.487874 -0.052251 -0.871349
vn 0.487874 -0.052251 -0.871349
vn 0.487874 -0.052251 -0.871349
vn -0.161339 0.572089 -0.804166
vn -0.161339 0.572089 -0.804166
vn -0.161339 0.572089 -0.804166
vn -0.756457 0.548038 -0.356968
vn -0.756457 0.548038 -0.356968
vn -0.756457 0.548038 -0.356968
vn 0.360606 -0.239138 -0.901541
vn 0.360606 -0.239138 -0.901541
vn 0.360606 -0.239138 -0.901541
vn -0.278294 -0.367956 -0.887221
vn -0.278294 -0.367956 -0.887221
vn -0.278294 -0.367956 -0.887221
vn 0.438010 -0.406401 -0.801864
vn 0.438010 -0.406401 -0.801864
vn 0.438010 -0.406401 -0.801864
vn 0.628013 -0.755308 0.187374
vn 0.628013 -0.755308 0.187374
vn 0.628013 -0.755308 0.187374
vn -0.401093 -0.294709 0.867336
vn -0.401093 -0.294709 0.867336
vn -0.401093 -0.294709 0.867336
vn 0.052282 0.199882 0.978424
vn 0.052282 0.199882 0.978424
vn 0.052282 0.199882 0.978424
vn 0.750509 0.453083 -0.481095
vn 0.750509 0.453083 -0.481095
vn 0.750509 0.453083 -0.481095
vn 0.248372 0.459863 -0.852548
vn 0.248372 0.459863 -0.852548
vn 0.248372 0.459863 -0.852548
vn -0.441740 0.713998 -0.543205
vn -0.441740 0.713998 -0.543206
vn -0.441740 0.713998 -0.543205
vn -0.325267 0.286023 -0.901328
vn -0.325267 0.286023 -0.901328
vn -0.325267 0.286023 -0.901328
vn -0.016689 0.395306 0.918398
vn -0.016689 0.395306 0.918398
vn -0.016689 0.395306 0.918398
vn -0.665565 -0.726207 0.172184
vn -0.665565 -0.726207 0.172184
vn -0.665565 -0.726207 0.172184
vn 0.147504 -0.226030 0.962888
vn 0.147504 -0.226030 0.962888
vn 0.147504 -0.226030 0.962888
vn -0.274632 0.259197 0.925956
vn -0.274632 0.259197 0.925956
vn -0.274632 0.259197 0.925956
vn 0.627010 -0.019622 -0.778764
vn 0.627010 -0.019622 -0.778764
vn 0.627010 -0.019622 -0.778764
vn 0.576222 0.305922 -0.757879
vn 0.576222 0.305922 -0.757879
vn 0.576222 0.305922 -0.757879
vn -0.003690 -0.854633 -0.519219
vn -0.003690 -0.854633 -0.519219
vn -0.003690 -0.854633 -0.519219
vn 0.525077 -0.745480 -0.410554
vn 0.525077 -0.745480 -0.410554
vn 0.525077 -0.745480 -0.410554
vn 0.858593 0.093005 -0.504151
vn 0.858593 0.093005 -0.504151
vn 0.858593 0.093005 -0.504151
vn 0.988783 0.133347 -0.067284
vn 0.988783 0.133347 -0.067284
vn 0.988783 0.133347 -0.067284
vn -0.676527 0.025160 0.735988
vn -0.676527 0.025160 0.735988
vn -0.676527 0.025160 0.735988
vn -0.618054 -0.239041 0.748912
vn -0.618054 -0.239041 0.748912
vn -0.618054 -0.239041 0.748912
vn -0.542800 0.666070 0.511585
vn -0.542800 0.666070 0.511585
vn -0.542800 0.666070 0.511585
vn -0.231032 0.216455 0.948563
vn -0.231032 0.216455 0.948563
vn -0.231032 0.216455 0.948563
vn 0.877071 -0.189445 0.441426
vn 0.877071 -0.189445 0.441426
vn 0.877071 -0.189445 0.441426
vn 0.128149 -0.077687 0.988708
vn 0.128149 -0.077687 0.988708
vn 0.128149 -0.077687 0.988708
vn -0.259783 0.325155 -0.909278
vn -0.259783 0.325155 -0.909278
vn -0.259783 0.325155 -0.909278
vn 0.097198 0.157437 -0.982734
vn 0.097198 0.157437 -0.982734
vn 0.097198 0.157437 -0.982734
vn -0.489616 0.543069 0.682167
vn -0.489616 0.543069 0.682167
vn -0.489616 0.543069 0.682167
vn -0.905801 0.390667 0.164024
vn -0.905801 0.390667 0.164024
vn -0.905801 0.390667 0.164024
vn 0.689402 0.369891 0.622820
vn 0.689402 0.369891 0.622820
vn 0.689402 0.369891 0.622820
vn 0.135748 0.141518 0.980584
vn 0.135748 0.141518 0.980584
vn 0.135748 0.141518 0.980584
vn -0.719417 0.679119 -0.145729
vn -0.719417 0.679119 -0.145729
vn -0.719416 0.679119 -0.145729
vn -0.163641 0.733203 -0.660027
vn -0.163641 0.733203 -0.660027
vn -0.163642 0.733203 -0.660027
vn 0.323519 0.314188 0.892537
vn 0.323519 0.314188 0.892537
vn 0.323519 0.314188 0.892537
vn 0.695785 -0.706419 0.129826
vn 0.695785 -0.706419 0.129826
vn 0.695785 -0.706419 0.129826
vn -0.978360 0.094902 0.183862
vn -0.978360 0.094902 0.183862
vn -0.978360 0.094902 0.183862
vn -0.469506 0.230922 -0.852197
vn -0.469506 0.230922 -0.852197
vn -0.469506 0.230922 -0.852197
vn 0.665417 0.492021 -0.561370
vn 0.665417 0.492021 -0.561370
vn 0.665417 0.492021 -0.561370
vn 0.511185 0.263348 -0.818131
vn 0.511185 0.263348 -0.818131
vn 0.511185 0.263348 -0.818131
vn 0.946508 0.204285 0.249778
vn 0.946508 0.204285 0.249779
vn 0.946508 0.204285 0.249778
vn 0.719873 -0.660717 0.212689
vn 0.719873 -0.660717 0.212689
vn 0.719873 -0.660717 0.212689
vn 0.232615 -0.581983 0.779222
vn 0.232615 -0.581983 0.779222
vn 0.232615 -0.581983 0.779222
vn -0.336739 -0.748059 0.571852
vn -0.336739 -0.748059 0.571852
vn -0.336739 -0.748059 0.571852
vn -0.877591 0.387349 -0.282480
vn -0.877591 0.387349 -0.282480
vn -0.877591 0.387349 -0.282480
vn -0.627192 0.154785 -0.763329
vn -0.627192 0.154785 -0.763329
vn -0.627192 0.154785 -0.763329
vn 0.767654 0.070201 0.637008
vn 0.767654 0.070201 0.637008
vn 0.767654 0.070201 0.637007
vn 0.749618 0.453910 -0.481704
vn 0.749618 0.453910 -0.481704
vn 0.749618 0.453910 -0.481704
vn -0.229544 -0.625678 0.745545
vn -0.229544 -0.625678 0.745545
vn -0.229544 -0.625678 0.745545
vn -0.606438 -0.225554 0.762469
vn -0.606438 -0.225554 0.762469
vn -0.606438 -0.225554 0.762469
vn 0.735613 -0.674077 0.067035
vn 0.735613 -0.674077 0.067035
vn 0.735613 -0.674077 0.067035
vn -0.064168 -0.995800 0.065308
vn -0.064168 -0.995800 0.065308
vn -0.064168 -0.995800 0.065308
vn 0.251212 0.200445 -0.946950
vn 0.251212 0.200445 -0.946950
vn 0.251212 0.200445 -0.946950
vn 0.584025 -0.182320 -0.790996
vn 0.584025 -0.182320 -0.790996
vn 0.584025 -0.182320 -0.790996
vn -0.342831 -0.568884 0.747554
vn -0.342831 -0.568884 0.747555
vn -0.342831 -0.568884 0.747554
vn 0.663273 -0.348157 0.662462
vn 0.663273 -0.348157 0.662462
vn 0.663273 -0.348157 0.662462
vn -0.852337 0.221162 -0.473929
vn -0.852337 0.221162 -0.473929
vn -0.852337 0.221162 -0.473929
vn -0.796044 0.062400 0.602014
vn -0.796044 0.062400 0.602014
vn -0.796044 0.062400 0.602014
vn -0.747142 -0.664657 -0.003148
vn -0.747142 -0.664657 -0.003148
vn -0.747142 -0.664657 -0.003148
vn -0.946525 0.018848 -0.322079
vn -0.946525 0.018848 -0.322079
vn -0.946525 0.018848 -0.322079
vn -0.303229 -0.944573 -0.125829
vn -0.303229 -0.944573 -0.125829
vn -0.303229 -0.944573 -0.125829
vn -0.581377 -0.660204 -0.475532
vn -0.581377 -0.660204 -0.475532
vn -0.581377 -0.660204 -0.475532
vn 0.638760 -0.356549 0.681805
vn 0.638760 -0.356549 0.681805
vn 0.638760 -0.356549 0.681805
vn 0.710102 0.570403 0.412791
vn 0.710102 0.570403 0.412791
vn 0.710102 0.570403 0.412791
vn -0.342909 -0.907112 0.244053
vn -0.342909 -0.907112 0.244053
vn -0.342909 -0.907112 0.244053
vn -0.608000 -0.699927 0.374752
vn -0.608000 -0.699927 0.374752
vn -0.608000 -0.699927 0.374752
vn -0.894955 -0.061159 -0.441946
vn -0.894955 -0.061159 -0.441946
vn -0.894955 -0.061159 -0.441946
vn -0.681628 -0.607436 -0.407927
vn -0.681628 -0.607436 -0.407927
vn -0.681628 -0.607436 -0.407927
vn 0.355952 0.367923 -0.859029
vn 0.355952 0.367923 -0.859029
vn 0.355952 0.367923 -0.859029
vn 0.635602 0.185652 -0.749362
vn 0.635602 0.185652 -0.749362
vn 0.635602 0.185652 -0.749362
vn -0.133800 0.370552 0.919124
vn -0.133800 0.370552 0.919124
vn -0.133800 0.370552 0.919124
vn 0.431232 -0.051660 0.900761
vn 0.431232 -0.051660 0.900761
vn 0.431232 -0.051660 0.900761
vn -0.885249 0.012388 0.464952
vn -0.885249 0.012388 0.464952
vn -0.885249 0.012388 0.464952
vn -0.396583 -0.162549 0.903493
vn -0.396583 -0.162549 0.903493
vn -0.396583 -0.162549 0.903493
vn 0.872639 -0.232129 -0.429671
vn 0.872639 -0.232129 -0.429671
vn 0.872639 -0.232129 -0.429671
vn 0.656222 -0.733153 -0.178492
vn 0.656222 -0.733153 -0.178492
vn 0.656222 -0.733153 -0.178492
vn -0.956599 -0.164545 -0.240506
vn -0.956599 -0.164545 -0.240506
vn -0.956599 -0.164545 -0.240506
vn -0.834496 -0.506085 -0.217933
vn -0.834496 -0.506085 -0.217933
vn -0.834496 -0.506085 -0.217933
s off
g Viande2:Group18817 group4
usemtl initialShadingGroup
f 50/1/1 15/2/2 68/3/3
f 31/4/4 64/5/5 16/6/6
f 22/7/7 37/8/8 67/9/9
f 67/9/10 37/8/11 20/10/12
f 10/11/13 11/12/14 12/13/15
f 69/14/16 24/15/17 7/16/18
f 44/17/19 52/18/20 8/19/21
f 65/20/22 57/21/23 30/22/24
f 38/23/25 31/4/26 2/24/27
f 13/25/28 44/17/29 57/21/30
f 10/11/31 43/26/32 11/12/33
f 62/27/34 69/14/35 7/16/36
f 11/12/37 55/28/38 12/13/39
f 15/2/40 1/29/41 68/3/42
f 61/30/43 38/23/44 2/24/45
f 65/20/46 73/31/47 57/21/48
f 48/32/49 78/33/50 13/25/51
f 19/34/52 54/35/53 73/31/54
f 61/30/55 2/24/56 14/36/57
f 58/37/58 70/38/59 25/39/60
f 24/15/61 72/40/62 7/16/63
f 52/18/64 47/41/65 8/19/66
f 3/42/67 33/43/68 35/44/69
f 15/2/70 75/45/71 1/29/72
f 49/46/73 42/47/74 28/48/75
f 4/49/76 40/50/77 23/51/78
f 80/52/79 26/53/80 46/54/81
f 6/55/82 71/56/83 17/57/84
f 19/34/85 45/58/86 51/59/87
f 76/60/88 65/20/89 30/22/90
f 4/49/91 20/10/92 5/61/93
f 42/47/94 34/62/95 46/54/96
f 21/63/97 31/4/98 16/6/99
f 70/38/100 78/33/101 48/32/102
f 29/64/103 77/65/104 22/7/105
f 23/51/106 36/66/107 29/64/108
f 59/67/109 4/49/110 23/51/111
f 23/51/112 29/64/113 59/67/114
f 24/15/115 47/41/116 35/44/117
f 66/68/118 8/19/119 47/41/120
f 14/36/121 58/37/122 25/39/123
f 19/34/124 51/59/125 54/35/126
f 74/69/127 26/53/128 20/10/129
f 77/65/130 17/57/131 53/70/132
f 27/71/133 44/17/134 8/19/135
f 27/71/136 8/19/137 66/68/138
f 49/46/139 28/48/140 36/66/141
f 46/54/142 26/53/143 6/55/144
f 36/66/145 17/57/146 29/64/147
f 29/64/148 17/57/149 77/65/150
f 32/72/151 30/22/152 39/73/153
f 10/11/154 76/60/155 30/22/156
f 9/74/157 31/4/158 21/63/159
f 31/4/160 9/74/161 2/24/162
f 62/27/163 79/75/164 10/11/165
f 62/27/166 10/11/167 30/22/168
f 33/43/169 3/42/170 16/6/171
f 33/43/172 16/6/173 64/5/174
f 5/61/175 20/10/176 34/62/177
f 26/53/178 80/52/179 20/10/180
f 50/1/181 72/40/182 15/2/183
f 15/2/184 72/40/185 75/45/186
f 36/66/187 28/48/188 56/76/189
f 36/66/190 56/76/191 17/57/192
f 22/7/193 18/77/194 37/8/195
f 53/70/196 63/78/197 18/77/198
f 55/28/199 38/23/200 61/30/201
f 1/29/202 75/45/203 64/5/204
f 32/72/205 39/73/206 27/71/207
f 57/21/208 44/17/209 27/71/210
f 40/50/211 4/49/212 5/61/213
f 40/50/214 42/47/215 49/46/216
f 55/28/217 41/79/218 38/23/219
f 38/23/220 41/79/221 31/4/222
f 40/50/223 5/61/224 42/47/225
f 5/61/226 34/62/227 42/47/228
f 43/26/229 50/1/230 68/3/231
f 62/27/232 7/16/233 79/75/234
f 44/17/235 21/63/236 52/18/237
f 78/33/238 44/17/239 13/25/240
f 76/60/241 45/58/242 19/34/243
f 76/60/244 55/28/245 61/30/246
f 28/48/247 60/80/248 56/76/249
f 42/47/250 60/80/251 28/48/252
f 47/41/253 16/6/254 3/42/255
f 47/41/256 3/42/257 35/44/258
f 54/35/259 48/32/260 13/25/261
f 25/39/262 70/38/263 48/32/264
f 40/50/265 49/46/266 23/51/267
f 23/51/268 49/46/269 36/66/270
f 7/16/271 72/40/272 50/1/273
f 7/16/274 50/1/275 43/26/276
f 45/58/277 14/36/278 51/59/279
f 51/59/280 14/36/281 25/39/282
f 52/18/283 16/6/284 47/41/285
f 21/63/286 16/6/287 52/18/288
f 17/57/289 71/56/290 53/70/291
f 53/70/292 71/56/293 63/78/294
f 51/59/295 25/39/296 54/35/297
f 54/35/298 25/39/299 48/32/300
f 1/29/301 41/79/302 55/28/303
f 68/3/304 1/29/305 55/28/306
f 56/76/307 6/55/308 17/57/309
f 56/76/310 60/80/311 6/55/312
f 30/22/313 57/21/314 39/73/315
f 39/73/316 57/21/317 27/71/318
f 58/37/319 2/24/320 70/38/321
f 14/36/322 2/24/323 58/37/324
f 29/64/325 22/7/326 59/67/327
f 59/67/328 22/7/329 4/49/330
f 60/80/331 46/54/332 6/55/333
f 42/47/334 46/54/335 60/80/336
f 76/60/337 61/30/338 45/58/339
f 45/58/340 61/30/341 14/36/342
f 30/22/343 32/72/344 62/27/345
f 32/72/346 69/14/347 62/27/348
f 18/77/349 63/78/350 37/8/351
f 37/8/352 74/69/353 20/10/354
f 41/79/355 64/5/356 31/4/357
f 1/29/358 64/5/359 41/79/360
f 19/34/361 73/31/362 65/20/363
f 65/20/364 76/60/365 19/34/366
f 66/68/367 47/41/368 24/15/369
f 69/14/370 66/68/371 24/15/372
f 22/7/373 67/9/374 4/49/375
f 67/9/376 20/10/377 4/49/378
f 11/12/379 68/3/380 55/28/381
f 43/26/382 68/3/383 11/12/384
f 27/71/385 66/68/386 69/14/387
f 32/72/388 27/71/389 69/14/390
f 2/24/391 9/74/392 70/38/393
f 70/38/394 9/74/395 78/33/396
f 71/56/397 26/53/398 74/69/399
f 6/55/400 26/53/401 71/56/402
f 24/15/403 35/44/404 72/40/405
f 72/40/406 35/44/407 75/45/408
f 73/31/409 54/35/410 13/25/411
f 73/31/412 13/25/413 57/21/414
f 37/8/415 63/78/416 74/69/417
f 63/78/418 71/56/419 74/69/420
f 75/45/421 33/43/422 64/5/423
f 35/44/424 33/43/425 75/45/426
f 12/13/427 55/28/428 76/60/429
f 10/11/430 12/13/431 76/60/432
f 77/65/433 53/70/434 18/77/435
f 77/65/436 18/77/437 22/7/438
f 9/74/439 21/63/440 78/33/441
f 78/33/442 21/63/443 44/17/444
f 79/75/445 43/26/446 10/11/447
f 79/75/448 7/16/449 43/26/450
f 34/62/451 80/52/452 46/54/453
f 20/10/454 80/52/455 34/62/456
